<svg width="11" height="11" viewBox="0 0 11 11" fill="none" xmlns="http://www.w3.org/2000/svg">
<path d="M9.40678 4.48688H6.21717V1.29727C6.21717 0.819732 5.83005 0.432617 5.35251 0.432617C4.87497 0.432617 4.48786 0.819732 4.48786 1.29727V4.48688H1.29825C0.820709 4.48688 0.433594 4.874 0.433594 5.35154C0.433594 5.82907 0.820709 6.21619 1.29825 6.21619H4.48786V9.4058C4.48786 9.88334 4.87497 10.2705 5.35251 10.2705C5.83005 10.2705 6.21717 9.88334 6.21717 9.4058V6.21619H9.40678C9.88432 6.21619 10.2714 5.82907 10.2714 5.35154C10.2714 4.874 9.88432 4.48688 9.40678 4.48688Z" fill="white"/>
</svg>
