<svg width="65" height="65" viewBox="0 0 65 65" fill="none" xmlns="http://www.w3.org/2000/svg">
<path d="M36.8555 7.10938H43.2532C43.9539 7.10938 44.5227 6.54106 44.5227 5.83984C44.5227 5.13863 43.9539 4.57031 43.2532 4.57031H36.8555C36.1543 4.57031 35.5859 5.13863 35.5859 5.83984C35.5859 6.54106 36.1543 7.10938 36.8555 7.10938Z" fill="white"/>
<path d="M31.3955 7.10938C31.7307 7.10938 32.0571 6.9735 32.2931 6.73744C32.5292 6.50139 32.665 6.17359 32.665 5.83984C32.665 5.5061 32.5292 5.1783 32.2931 4.94225C32.0571 4.70619 31.7302 4.57031 31.3955 4.57031C31.0618 4.57031 30.734 4.70619 30.4979 4.94225C30.2619 5.1783 30.126 5.5061 30.126 5.83984C30.126 6.17359 30.2619 6.50139 30.4979 6.73744C30.734 6.9735 31.0618 7.10938 31.3955 7.10938Z" fill="white"/>
<path d="M48.585 7.10938C48.9187 7.10938 49.2465 6.9735 49.4826 6.73744C49.7186 6.50139 49.8545 6.17359 49.8545 5.83984C49.8545 5.5061 49.7186 5.1783 49.4826 4.94225C49.2465 4.70619 48.9187 4.57031 48.585 4.57031C48.2497 4.57031 47.9224 4.70619 47.6874 4.94225C47.4503 5.1783 47.3154 5.5061 47.3154 5.83984C47.3154 6.17359 47.4503 6.50139 47.6874 6.73744C47.9224 6.9735 48.2497 7.10938 48.585 7.10938Z" fill="white"/>
<path d="M56.2404 0H23.7404C20.8001 0 18.4084 2.39178 18.4084 5.33203V20.4395H14.4614C13.7607 20.4395 13.1919 21.0078 13.1919 21.709C13.1919 22.4102 13.7607 22.9785 14.4614 22.9785H18.4128C18.4108 23.0068 18.4084 23.0346 18.4084 23.0633V31.2468H14.4614C13.7607 31.2468 13.1919 31.8151 13.1919 32.5164C13.1919 33.2171 13.7607 33.7859 14.4614 33.7859H18.4084V40.7966H12.9707C12.2695 40.7966 11.7012 41.3649 11.7012 42.0661C11.7012 42.7673 12.2695 43.3356 12.9707 43.3356H18.4084V59.668C18.4084 62.6082 20.8001 65 23.7404 65H56.2404C59.1806 65 61.5724 62.6082 61.5724 59.668V5.33203C61.5724 2.39178 59.1806 0 56.2404 0ZM23.7404 2.53906H56.2404C57.7807 2.53906 59.0334 3.79173 59.0334 5.33203V9.14062H20.9474V5.33203C20.9474 3.79173 22.2001 2.53906 23.7404 2.53906ZM20.943 22.9785H24.2894L25.7945 31.2468H20.9474V23.0633C20.9474 23.0346 20.9449 23.0068 20.943 22.9785ZM48.0683 45.113C48.0683 46.0929 47.2709 46.8903 46.2909 46.8903C45.311 46.8903 44.5136 46.0929 44.5136 45.113C44.5136 44.1331 45.311 43.3356 46.2909 43.3356C47.2709 43.3356 48.0683 44.1331 48.0683 45.113ZM30.1133 40.7966L27.6174 27.0856H52.6093L49.3919 40.7966H30.1133ZM35.4672 45.113C35.4672 46.0929 34.6698 46.8903 33.6898 46.8903C32.7099 46.8903 31.9125 46.0929 31.9125 45.113C31.9125 44.1331 32.7099 43.3356 33.6898 43.3356C34.6698 43.3356 35.4672 44.1331 35.4672 45.113ZM20.9474 33.7859H26.2566L27.5326 40.7966H20.9474V33.7859ZM29.0541 43.3356H29.7578C29.5118 43.8782 29.3734 44.4797 29.3734 45.113C29.3734 47.4934 31.3095 49.4294 33.6898 49.4294C36.0697 49.4294 38.0063 47.4934 38.0063 45.113C38.0063 44.4797 37.8679 43.8782 37.6219 43.3356H42.3589C42.1129 43.8782 41.9745 44.4797 41.9745 45.113C41.9745 47.4934 43.9111 49.4294 46.2909 49.4294C48.6713 49.4294 50.6073 47.4934 50.6073 45.113C50.6073 44.4797 50.469 43.8782 50.223 43.3356H50.3981C50.9877 43.3356 51.4995 42.93 51.6344 42.3562L55.4474 26.1062C55.5362 25.7288 55.4474 25.3316 55.2064 25.0276C54.9659 24.7236 54.5994 24.5466 54.2116 24.5466H27.1552L26.5973 21.4819C26.4877 20.8778 25.9616 20.4395 25.3481 20.4395H20.9474V11.6797H59.0334V53.3203H20.9474V43.3356H29.0541ZM56.2404 62.4609H23.7404C22.2001 62.4609 20.9474 61.2083 20.9474 59.668V55.8594H59.0334V59.668C59.0334 61.2083 57.7807 62.4609 56.2404 62.4609Z" fill="white"/>
<path d="M42.7197 57.5405H37.2607C36.5595 57.5405 35.9912 58.1088 35.9912 58.8101C35.9912 59.5113 36.5595 60.0796 37.2607 60.0796H42.7197C43.4209 60.0796 43.9893 59.5113 43.9893 58.8101C43.9893 58.1088 43.4209 57.5405 42.7197 57.5405Z" fill="white"/>
<path d="M10.1562 21.709C10.1562 21.0078 9.58794 20.4395 8.88672 20.4395H4.69727C3.99605 20.4395 3.42773 21.0078 3.42773 21.709C3.42773 22.4102 3.99605 22.9785 4.69727 22.9785H8.88672C9.58794 22.9785 10.1562 22.4102 10.1562 21.709Z" fill="white"/>
<path d="M9.4043 31.2471C9.06906 31.2471 8.74325 31.382 8.50719 31.619C8.27065 31.8556 8.13477 32.1819 8.13477 32.5166C8.13477 32.8508 8.27065 33.1781 8.50719 33.4142C8.74325 33.6503 9.06956 33.7861 9.4043 33.7861C9.73854 33.7861 10.0658 33.6503 10.3019 33.4142C10.5379 33.1767 10.6738 32.8508 10.6738 32.5166C10.6738 32.1829 10.5384 31.8556 10.3019 31.619C10.0658 31.3815 9.73854 31.2471 9.4043 31.2471Z" fill="white"/>
</svg>
