<svg width="18" height="18" viewBox="0 0 18 18" fill="none" xmlns="http://www.w3.org/2000/svg">
<path d="M12.7526 0.836914C11.9133 0.836914 11.1112 1.02931 10.3685 1.40879C9.86292 1.66707 9.39849 2.01022 9 2.41735C8.60148 2.01022 8.13708 1.66707 7.63152 1.40879C6.8888 1.02931 6.08667 0.836914 5.24739 0.836914C2.35399 0.836914 0 3.19091 0 6.08434C0 8.13371 1.08234 10.3103 3.21692 12.5537C4.99918 14.4269 7.18122 15.9883 8.69786 16.9684L9 17.1636L9.30214 16.9684C10.8188 15.9883 13.0008 14.4269 14.7831 12.5537C16.9177 10.3103 18 8.13371 18 6.08434C18 3.19091 15.646 0.836914 12.7526 0.836914ZM13.9765 11.7862C12.3837 13.4603 10.4435 14.8834 9 15.8359C7.55655 14.8834 5.61633 13.4603 4.02354 11.7862C2.09249 9.75679 1.1134 7.83839 1.1134 6.08434C1.1134 3.80484 2.96792 1.95032 5.24743 1.95032C6.55979 1.95032 7.76535 2.55315 8.5549 3.6042L9 4.19672L9.4451 3.6042C10.2347 2.55315 11.4402 1.95032 12.7526 1.95032C15.0321 1.95032 16.8866 3.80484 16.8866 6.08434C16.8866 7.83839 15.9075 9.75679 13.9765 11.7862Z" fill="#333333"/>
</svg>
