<svg width="28" height="28" viewBox="0 0 28 28" fill="none" xmlns="http://www.w3.org/2000/svg">
<path d="M24.7188 0H3.28125C1.47197 0 0 1.47197 0 3.28125V24.7188C0 26.528 1.47197 28 3.28125 28H24.7188C26.528 28 28 26.528 28 24.7188V3.28125C28 1.47197 26.528 0 24.7188 0ZM25.8125 24.7188C25.8125 25.3218 25.3218 25.8125 24.7188 25.8125H18.4844V16.8984H21.8635L22.4219 13.5078H18.4844V11.1562C18.4844 10.2279 19.1967 9.51562 20.125 9.51562H22.3672V6.125H20.125C17.3401 6.125 15.095 8.38086 15.095 11.1658V13.5078H11.8125V16.8984H15.095V25.8125H3.28125C2.67816 25.8125 2.1875 25.3218 2.1875 24.7188V3.28125C2.1875 2.67816 2.67816 2.1875 3.28125 2.1875H24.7188C25.3218 2.1875 25.8125 2.67816 25.8125 3.28125V24.7188Z" fill="black"/>
</svg>
