<svg width="28" height="28" viewBox="0 0 28 28" fill="none" xmlns="http://www.w3.org/2000/svg">
<g clip-path="url(#clip0_3467_6669)">
<path d="M21.0005 0H7.00081C3.15124 0 0.000976562 3.15026 0.000976562 6.99983V21.0002C0.000976562 24.8487 3.15124 28 7.00081 28H21.0005C24.85 28 28.0003 24.8487 28.0003 21.0002V6.99983C28.0003 3.15026 24.85 0 21.0005 0ZM25.6669 21.0002C25.6669 23.5726 23.5743 25.6666 21.0005 25.6666H7.00081C4.42803 25.6666 2.33437 23.5726 2.33437 21.0002V6.99983C2.33437 4.42671 4.42803 2.33339 7.00081 2.33339H21.0005C23.5743 2.33339 25.6669 4.42671 25.6669 6.99983V21.0002Z" fill="black"/>
<path d="M21.5842 8.16593C22.5507 8.16593 23.3341 7.38245 23.3341 6.41597C23.3341 5.4495 22.5507 4.66602 21.5842 4.66602C20.6177 4.66602 19.8342 5.4495 19.8342 6.41597C19.8342 7.38245 20.6177 8.16593 21.5842 8.16593Z" fill="black"/>
<path d="M14.0001 6.99902C10.1333 6.99902 7.00024 10.1325 7.00024 13.9989C7.00024 17.8638 10.1333 20.9994 14.0001 20.9994C17.8657 20.9994 20.9999 17.8638 20.9999 13.9989C20.9999 10.1325 17.8657 6.99902 14.0001 6.99902ZM14.0001 18.666C11.4231 18.666 9.33363 16.5766 9.33363 13.9989C9.33363 11.4212 11.4231 9.33241 14.0001 9.33241C16.5771 9.33241 18.6665 11.4212 18.6665 13.9989C18.6665 16.5766 16.5771 18.666 14.0001 18.666Z" fill="black"/>
</g>
<defs>
<clipPath id="clip0_3467_6669">
<rect width="28" height="28" fill="white"/>
</clipPath>
</defs>
</svg>
