<svg width="19" height="19" viewBox="0 0 19 19" fill="none" xmlns="http://www.w3.org/2000/svg">
<path d="M18.9489 6.86511C18.8026 6.41456 18.3653 6.10488 17.7492 6.01541L12.8637 5.30542L10.6789 0.878429C10.4033 0.320184 9.97366 0 9.49999 0C9.02632 0 8.59666 0.320184 8.32115 0.878429L6.13638 5.30538L1.25082 6.01537C0.634722 6.10484 0.197455 6.41456 0.0510565 6.86504C-0.0953051 7.31556 0.0764397 7.82311 0.522167 8.25763L4.05737 11.7035L3.22281 16.5694C3.11307 17.2094 3.29944 17.5922 3.47515 17.8006C3.68067 18.0443 3.98048 18.1786 4.31937 18.1786C4.57557 18.1786 4.84844 18.1034 5.13022 17.9552L9.49999 15.6579L13.8698 17.9552C14.1516 18.1033 14.4244 18.1785 14.6807 18.1785H14.6808C15.0197 18.1785 15.3195 18.0443 15.525 17.8005C15.7007 17.5922 15.8871 17.2094 15.7773 16.5693L14.9426 11.7035L18.4778 8.2577C18.9236 7.82318 19.0953 7.31559 18.9489 6.86511Z" fill="#FCAA13"/>
</svg>
